<svg width="85" height="85" viewBox="0 0 85 85" fill="none" xmlns="http://www.w3.org/2000/svg">
<circle cx="5" cy="5" r="5" fill="#7E8A57"/>
<circle cx="20" cy="5" r="5" fill="#7E8A57"/>
<circle cx="35" cy="5" r="5" fill="#7E8A57"/>
<circle cx="50" cy="5" r="5" fill="#7E8A57"/>
<circle cx="65" cy="5" r="5" fill="#7E8A57"/>
<circle cx="80" cy="5" r="5" fill="#7E8A57"/>
<circle cx="5" cy="20" r="5" fill="#7E8A57"/>
<circle cx="20" cy="20" r="5" fill="#7E8A57"/>
<circle cx="35" cy="20" r="5" fill="#7E8A57"/>
<circle cx="50" cy="20" r="5" fill="#7E8A57"/>
<circle cx="65" cy="20" r="5" fill="#7E8A57"/>
<circle cx="80" cy="20" r="5" fill="#7E8A57"/>
<circle cx="5" cy="35" r="5" fill="#7E8A57"/>
<circle cx="20" cy="35" r="5" fill="#7E8A57"/>
<circle cx="35" cy="35" r="5" fill="#7E8A57"/>
<circle cx="50" cy="35" r="5" fill="#7E8A57"/>
<circle cx="65" cy="35" r="5" fill="#7E8A57"/>
<circle cx="80" cy="35" r="5" fill="#7E8A57"/>
<circle cx="5" cy="50" r="5" fill="#7E8A57"/>
<circle cx="20" cy="50" r="5" fill="#7E8A57"/>
<circle cx="35" cy="50" r="5" fill="#7E8A57"/>
<circle cx="50" cy="50" r="5" fill="#7E8A57"/>
<circle cx="65" cy="50" r="5" fill="#7E8A57"/>
<circle cx="80" cy="50" r="5" fill="#7E8A57"/>
<circle cx="5" cy="65" r="5" fill="#7E8A57"/>
<circle cx="20" cy="65" r="5" fill="#7E8A57"/>
<circle cx="35" cy="65" r="5" fill="#7E8A57"/>
<circle cx="50" cy="65" r="5" fill="#7E8A57"/>
<circle cx="65" cy="65" r="5" fill="#7E8A57"/>
<circle cx="80" cy="65" r="5" fill="#7E8A57"/>
<circle cx="5" cy="80" r="5" fill="#7E8A57"/>
<circle cx="20" cy="80" r="5" fill="#7E8A57"/>
<circle cx="35" cy="80" r="5" fill="#7E8A57"/>
<circle cx="50" cy="80" r="5" fill="#7E8A57"/>
<circle cx="65" cy="80" r="5" fill="#7E8A57"/>
<circle cx="80" cy="80" r="5" fill="#7E8A57"/>
</svg>
