<svg width="336" height="85" viewBox="0 0 336 85" fill="none" xmlns="http://www.w3.org/2000/svg">
<circle cx="5" cy="5" r="5" fill="#7E8A57"/>
<circle cx="20" cy="5" r="5" fill="#7E8A57"/>
<circle cx="35" cy="5" r="5" fill="#7E8A57"/>
<circle cx="50" cy="5" r="5" fill="#7E8A57"/>
<circle cx="65" cy="5" r="5" fill="#7E8A57"/>
<circle cx="80" cy="5" r="5" fill="#7E8A57"/>
<circle cx="5" cy="20" r="5" fill="#7E8A57"/>
<circle cx="20" cy="20" r="5" fill="#7E8A57"/>
<circle cx="35" cy="20" r="5" fill="#7E8A57"/>
<circle cx="50" cy="20" r="5" fill="#7E8A57"/>
<circle cx="65" cy="20" r="5" fill="#7E8A57"/>
<circle cx="80" cy="20" r="5" fill="#7E8A57"/>
<circle cx="5" cy="35" r="5" fill="#7E8A57"/>
<circle cx="20" cy="35" r="5" fill="#7E8A57"/>
<circle cx="35" cy="35" r="5" fill="#7E8A57"/>
<circle cx="50" cy="35" r="5" fill="#7E8A57"/>
<circle cx="65" cy="35" r="5" fill="#7E8A57"/>
<circle cx="80" cy="35" r="5" fill="#7E8A57"/>
<circle cx="5" cy="50" r="5" fill="#7E8A57"/>
<circle cx="20" cy="50" r="5" fill="#7E8A57"/>
<circle cx="35" cy="50" r="5" fill="#7E8A57"/>
<circle cx="50" cy="50" r="5" fill="#7E8A57"/>
<circle cx="65" cy="50" r="5" fill="#7E8A57"/>
<circle cx="80" cy="50" r="5" fill="#7E8A57"/>
<circle cx="5" cy="65" r="5" fill="#7E8A57"/>
<circle cx="20" cy="65" r="5" fill="#7E8A57"/>
<circle cx="35" cy="65" r="5" fill="#7E8A57"/>
<circle cx="50" cy="65" r="5" fill="#7E8A57"/>
<circle cx="65" cy="65" r="5" fill="#7E8A57"/>
<circle cx="80" cy="65" r="5" fill="#7E8A57"/>
<circle cx="5" cy="80" r="5" fill="#7E8A57"/>
<circle cx="20" cy="80" r="5" fill="#7E8A57"/>
<circle cx="35" cy="80" r="5" fill="#7E8A57"/>
<circle cx="50" cy="80" r="5" fill="#7E8A57"/>
<circle cx="65" cy="80" r="5" fill="#7E8A57"/>
<circle cx="80" cy="80" r="5" fill="#7E8A57"/>
<path d="M110.867 29.625C109.57 29.625 108.203 30.2188 106.766 31.4062C104.469 33.3125 103.258 34.2656 103.133 34.2656C102.32 34.2656 101.914 33.7578 101.914 32.7422V32.0156C101.914 30.3281 102.055 28.8047 102.336 27.4453C102.477 26.7422 102.789 26.3203 103.273 26.1797C103.773 26.0391 108.477 25.9688 117.383 25.9688L126.172 25.9219H127.719C129.406 25.9219 130.406 26.1953 130.719 26.7422C131.047 27.2891 131.211 28.4844 131.211 30.3281V31.8281C131.211 33.4844 130.828 34.3125 130.062 34.3125C129.391 34.3125 128.578 33.7734 127.625 32.6953C126.672 31.6172 125.797 30.8438 125 30.375C124.203 29.8906 123.156 29.6484 121.859 29.6484C120.828 29.6484 120.227 30.3281 120.055 31.6875C119.992 32.1562 119.961 35.6484 119.961 42.1641C119.961 48.6641 120.047 52.2656 120.219 52.9688C120.391 53.6719 121.031 54.4297 122.141 55.2422C123.25 56.0391 123.805 56.7188 123.805 57.2812C123.805 57.8281 123.523 58.1719 122.961 58.3125C122.398 58.4531 120.578 58.5234 117.5 58.5234H113.562C112.016 58.5234 110.953 58.4688 110.375 58.3594C109.812 58.25 109.531 57.9375 109.531 57.4219C109.531 56.9062 110.062 56.1719 111.125 55.2188C112.188 54.2656 112.812 53.4375 113 52.7344C113.188 52.0156 113.281 48.4688 113.281 42.0938C113.281 35.7188 113.219 32.2109 113.094 31.5703C112.969 30.9141 112.75 30.4297 112.438 30.1172C112.141 29.7891 111.617 29.625 110.867 29.625ZM160.031 57C160.031 57.7344 159.508 58.2188 158.461 58.4531C157.414 58.6719 155.922 58.7812 153.984 58.7812C152.047 58.7812 150.789 58.6562 150.211 58.4062C149.633 58.1562 149.344 57.7344 149.344 57.1406C149.344 56.8906 149.547 56.3828 149.953 55.6172C150.359 54.8516 150.641 54.2109 150.797 53.6953C150.953 53.1641 151.031 51.2656 151.031 48C151.031 44.7344 150.758 42.5312 150.211 41.3906C149.664 40.2344 148.625 39.6562 147.094 39.6562C145.578 39.6562 144.414 40.1719 143.602 41.2031C142.805 42.2188 142.406 44.0781 142.406 46.7812C142.406 47.6719 142.516 49.0469 142.734 50.9062C142.953 52.7656 143.266 54.1797 143.672 55.1484C144.078 56.1172 144.281 56.6484 144.281 56.7422C144.281 57.4453 143.859 57.8906 143.016 58.0781C141.781 58.3438 139.914 58.4766 137.414 58.4766C134.93 58.4766 133.688 58.0938 133.688 57.3281C133.688 56.7812 134.047 56 134.766 54.9844C135.5 53.9688 135.914 53.0859 136.008 52.3359C136.117 51.5859 136.172 47.8359 136.172 41.0859C136.172 34.3359 136.062 30.5469 135.844 29.7188C135.641 28.8906 135.305 28.2656 134.836 27.8438C133.727 26.8438 133.172 26.2812 133.172 26.1562C133.172 25.5156 133.508 25.0547 134.18 24.7734C135.617 24.1641 137.523 23.8594 139.898 23.8594C141.039 23.8594 141.773 24.2734 142.102 25.1016C142.305 25.6172 142.406 27.625 142.406 31.125C142.406 34.6094 142.438 36.4609 142.5 36.6797C142.656 37.2266 142.977 37.5 143.461 37.5C143.664 37.5 144.109 37.3438 144.797 37.0312C146.703 36.1562 148.438 35.7188 150 35.7188C152.828 35.7188 154.828 36.8359 156 39.0703C156.844 40.6797 157.266 43.4297 157.266 47.3203C157.266 51.2109 157.375 53.4141 157.594 53.9297C157.812 54.4453 158.273 55.0391 158.977 55.7109C159.68 56.3828 160.031 56.8125 160.031 57ZM173.898 38.0391C175.711 36.7891 177.258 36.1641 178.539 36.1641C179.82 36.1641 180.688 36.4375 181.141 36.9844C181.609 37.5312 181.844 38.1875 181.844 38.9531C181.844 39.7188 181.633 40.4062 181.211 41.0156C180.805 41.6094 180.336 41.9062 179.805 41.9062C179.289 41.9062 178.57 41.7031 177.648 41.2969C176.727 40.8906 176.016 40.6875 175.516 40.6875C175.016 40.6875 174.453 40.9531 173.828 41.4844C173.203 42.0156 172.766 42.7734 172.516 43.7578C172.281 44.7422 172.164 46.2891 172.164 48.3984C172.164 50.4922 172.312 51.8516 172.609 52.4766C172.906 53.0859 173.516 53.8906 174.438 54.8906C175.359 55.8906 175.82 56.7109 175.82 57.3516C175.82 58.1016 174.008 58.4766 170.383 58.4766H168.367L167.875 58.4531C167.547 58.4375 167.211 58.4297 166.867 58.4297L166.375 58.4062C166.047 58.3906 165.703 58.3828 165.344 58.3828C163.703 58.3828 162.883 58.0312 162.883 57.3281C162.883 56.625 163.289 55.9141 164.102 55.1953C164.93 54.4766 165.43 53.8281 165.602 53.25C165.789 52.6719 165.883 50.6875 165.883 47.2969C165.883 43.9062 165.773 41.875 165.555 41.2031C165.352 40.5312 164.844 39.9609 164.031 39.4922C163.234 39.0078 162.836 38.5078 162.836 37.9922C162.836 37.2734 163.375 36.7656 164.453 36.4688C166.078 36.0312 167.547 35.8125 168.859 35.8125C170.172 35.8125 171.055 35.9609 171.508 36.2578C171.695 36.3828 171.906 36.7812 172.141 37.4531C172.391 38.125 172.68 38.4609 173.008 38.4609C173.148 38.4609 173.445 38.3203 173.898 38.0391ZM186.898 28.1016C186.898 27.1953 187.25 26.4297 187.953 25.8047C188.672 25.1797 189.445 24.8672 190.273 24.8672H191.023C191.258 24.9141 191.453 24.9375 191.609 24.9375C192.359 24.9375 193.023 25.2734 193.602 25.9453C194.18 26.6172 194.469 27.2578 194.469 27.8672V28.4766C194.438 28.6328 194.422 28.75 194.422 28.8281C194.422 29.4844 194.055 30.125 193.32 30.75C192.586 31.375 191.773 31.6875 190.883 31.6875H190.156C189.281 31.6875 188.523 31.4141 187.883 30.8672C187.258 30.3047 186.945 29.6641 186.945 28.9453L186.898 28.7109V28.1016ZM191.352 58.5938H189.125C187.047 58.5938 185.797 58.5391 185.375 58.4297C184.969 58.3047 184.766 57.9688 184.766 57.4219C184.766 56.8594 185.156 56.1875 185.938 55.4062C186.719 54.625 187.211 53.8438 187.414 53.0625C187.617 52.2656 187.719 50.2109 187.719 46.8984C187.719 43.5703 187.633 41.6094 187.461 41.0156C187.289 40.4219 186.75 39.9141 185.844 39.4922C184.953 39.0547 184.508 38.5391 184.508 37.9453C184.508 37.3359 184.922 36.8906 185.75 36.6094C187.625 35.9844 189.695 35.6719 191.961 35.6719H192.312C193.219 35.6719 193.742 36.0547 193.883 36.8203C193.961 37.2578 194 39.8828 194 44.6953C194 49.4922 194.102 52.3047 194.305 53.1328C194.523 53.9453 195.07 54.8125 195.945 55.7344C196.82 56.6562 197.258 57.2344 197.258 57.4688V57.75C197.258 58.3125 195.289 58.5938 191.352 58.5938ZM215.859 37.0078C215.859 36.2734 217.625 35.9062 221.156 35.9062C223.328 35.9062 224.414 36.3516 224.414 37.2422C224.414 37.8359 223.953 38.5547 223.031 39.3984C222.109 40.2266 221.414 41.1094 220.945 42.0469C220.93 42.0781 219.922 44.5312 217.922 49.4062C215.922 54.25 214.656 57.0469 214.125 57.7969C213.594 58.5469 212.797 58.9219 211.734 58.9219C210.672 58.9219 209.852 58.5 209.273 57.6562C208.695 56.8125 207.484 54.1094 205.641 49.5469C203.797 44.9844 202.664 42.3047 202.242 41.5078C201.82 40.7109 201.117 39.9062 200.133 39.0938C199.164 38.2656 198.68 37.6484 198.68 37.2422V36.7969C198.68 36.2031 200.758 35.9062 204.914 35.9062L206.062 35.8828C207.688 35.8828 208.703 35.9844 209.109 36.1875C209.516 36.3906 209.719 36.7188 209.719 37.1719C209.719 37.6094 209.602 38.0391 209.367 38.4609C209.133 38.8672 209.016 39.3438 209.016 39.8906C209.016 41.8906 210.055 45.2266 212.133 49.8984C212.57 50.8672 212.875 51.3516 213.047 51.3516C213.219 51.3516 213.516 50.8516 213.938 49.8516C215.875 45.2578 216.844 42.0859 216.844 40.3359C216.844 39.8516 216.68 39.2812 216.352 38.625C216.023 37.9688 215.859 37.4297 215.859 37.0078ZM237.227 38.5078H236.547C235.562 38.5078 234.617 39.0234 233.711 40.0547C232.82 41.0703 232.375 42.2891 232.375 43.7109V44.0859C232.375 44.6641 232.695 44.9531 233.336 44.9531L233.57 45H235.234L235.352 44.9766L239.266 44.7422C239.5 44.6953 239.656 44.6719 239.734 44.6719C240.531 44.6719 240.93 44.2578 240.93 43.4297V42.6562C240.93 41.6094 240.555 40.6562 239.805 39.7969C239.055 38.9375 238.195 38.5078 237.227 38.5078ZM232.656 49.6641C232.656 51.2266 233.391 52.5781 234.859 53.7188C235.953 54.5781 237.344 55.0078 239.031 55.0078C239.797 55.0078 240.93 54.7891 242.43 54.3516C243.945 53.9141 244.82 53.6953 245.055 53.6953C245.758 53.6953 246.109 54.0781 246.109 54.8438C246.109 55.75 245.172 56.6719 243.297 57.6094C241.438 58.5312 239.508 58.9922 237.508 58.9922H236.477C236.445 58.9922 236.406 58.9922 236.359 58.9922C235.094 58.9922 233.805 58.7344 232.492 58.2188C229.898 57.2188 228.055 55.4688 226.961 52.9688C226.211 51.25 225.836 49.6172 225.836 48.0703V46.9922C225.836 45.4141 226.109 43.8906 226.656 42.4219C227.688 39.6562 229.508 37.6641 232.117 36.4453C233.68 35.7266 235.32 35.3672 237.039 35.3672H237.578C240.125 35.3672 242.273 36.1562 244.023 37.7344C244.945 38.5781 245.648 39.5938 246.133 40.7812C246.633 41.9688 246.883 43.1797 246.883 44.4141C246.883 45.6328 246.281 46.4375 245.078 46.8281C243.391 47.375 240.266 47.6484 235.703 47.6484C234.484 47.6484 233.672 47.8047 233.266 48.1172C232.859 48.4141 232.656 48.9297 232.656 49.6641ZM259.766 31.1953C258.578 31.1953 257.367 31.7031 256.133 32.7188C254.914 33.7188 253.969 34.2188 253.297 34.2188C252.219 34.2188 251.68 33.4922 251.68 32.0391C251.68 30.5859 252.594 29.3672 254.422 28.3828C256.25 27.3984 258.57 26.9062 261.383 26.9062C264.195 26.9062 266.422 27.5469 268.062 28.8281C269.172 29.6875 269.727 31.1406 269.727 33.1875C269.727 35.2188 268.773 37.2656 266.867 39.3281C265.898 40.375 265.414 41.0234 265.414 41.2734C265.414 41.3203 266.031 41.7031 267.266 42.4219C268.5 43.125 269.531 44.0625 270.359 45.2344C271.203 46.4062 271.625 47.8203 271.625 49.4766C271.625 52.4141 270.5 54.8594 268.25 56.8125C266.016 58.75 263.117 59.7188 259.555 59.7188C256.93 59.7188 254.672 59.1094 252.781 57.8906C251.594 57.125 251 56.0625 251 54.7031C251 54.125 251.156 53.6406 251.469 53.25C251.797 52.8594 252.328 52.6641 253.062 52.6641C253.797 52.6641 254.766 53.1719 255.969 54.1875C257.188 55.2031 258.539 55.7109 260.023 55.7109C261.523 55.7109 262.734 55.1484 263.656 54.0234C264.594 52.8828 265.062 51.5156 265.062 49.9219C265.062 48.3281 264.523 47.0156 263.445 45.9844C262.805 45.375 262.172 44.9688 261.547 44.7656C260.938 44.5469 260.219 44.3594 259.391 44.2031C258.578 44.0469 258.055 43.9141 257.82 43.8047C257.242 43.5234 256.953 42.9531 256.953 42.0938C256.953 41.6875 257.625 41.1562 258.969 40.5C261.844 39.0781 263.281 37.1719 263.281 34.7812C263.281 32.3906 262.109 31.1953 259.766 31.1953ZM291.867 49.7578V48.4922C291.867 46.5859 291.352 44.8906 290.32 43.4062C289.57 42.3281 288.492 41.7891 287.086 41.7891H286.898C285.508 41.7891 284.391 42.2109 283.547 43.0547C282.703 43.8984 282.281 45.25 282.281 47.1094V47.6953L282.305 47.9062C282.305 49.9375 282.734 51.7656 283.594 53.3906C284.469 55 285.625 55.8047 287.062 55.8047H287.648C288.852 55.8047 289.852 55.2266 290.648 54.0703C291.461 52.8984 291.867 51.4609 291.867 49.7578ZM292.195 27.2109C294.289 27.2109 295.336 27.8828 295.336 29.2266C295.336 30.2891 293.766 30.9609 290.625 31.2422C289.125 31.3828 287.828 31.8594 286.734 32.6719C285.641 33.4844 284.852 34.3516 284.367 35.2734C283.898 36.1797 283.664 36.8594 283.664 37.3125C283.664 37.75 283.766 38.0547 283.969 38.2266C284.516 38.7109 285.258 38.9531 286.195 38.9531L288.727 38.7656C289.883 38.7656 291.078 39 292.312 39.4688C294.656 40.3438 296.328 41.9531 297.328 44.2969C297.859 45.5625 298.125 46.8594 298.125 48.1875V48.7734C298.125 50.1016 297.836 51.4531 297.258 52.8281C296.148 55.4688 294.148 57.3203 291.258 58.3828C289.992 58.8516 288.656 59.0859 287.25 59.0859H286.641C286.609 59.0859 286.578 59.0859 286.547 59.0859C285.078 59.0859 283.641 58.75 282.234 58.0781C279.484 56.7812 277.578 54.5156 276.516 51.2812C275.938 49.5156 275.648 47.7969 275.648 46.125V44.8828C275.648 44.8359 275.648 44.7969 275.648 44.7656C275.648 42.5469 276.062 40.3281 276.891 38.1094C278.578 33.5781 281.398 30.4609 285.352 28.7578C287.742 27.7266 289.852 27.2109 291.68 27.2109H292.195ZM308.148 36.3984C308.148 37.0078 308.32 37.5625 308.664 38.0625C309.008 38.5469 309.43 38.7891 309.93 38.7891L310.633 38.7656L311.359 38.7188C311.688 38.7031 312.359 38.6953 313.375 38.6953C314.406 38.6953 315.547 38.9766 316.797 39.5391C319.484 40.7422 321.312 42.6797 322.281 45.3516C322.641 46.3672 322.82 47.6328 322.82 49.1484C322.82 50.5547 322.5 51.9531 321.859 53.3438C320.609 56.0938 318.43 57.9766 315.32 58.9922C313.945 59.4453 312.312 59.6719 310.422 59.6719C308.547 59.6719 306.75 59.25 305.031 58.4062C303.312 57.5625 302.453 56.5 302.453 55.2188C302.453 54.4844 302.578 53.9141 302.828 53.5078C303.094 53.1016 303.586 52.8984 304.305 52.8984C305.039 52.8984 306.008 53.3828 307.211 54.3516C308.414 55.3047 309.617 55.7812 310.82 55.7812C312.57 55.7812 313.93 55.2109 314.898 54.0703C315.867 52.9141 316.352 51.5312 316.352 49.9219C316.352 47.6719 315.703 45.9453 314.406 44.7422C313.109 43.5391 311.18 42.9375 308.617 42.9375L307.961 42.9609C307.523 42.9766 306.977 42.9844 306.32 42.9844C304.711 42.9844 303.906 41.5156 303.906 38.5781C303.906 36.4219 304.086 34.3438 304.445 32.3438C304.82 30.3438 305.195 29.0625 305.57 28.5C305.961 27.9375 306.781 27.5547 308.031 27.3516C308.422 27.2891 309.578 27.2578 311.5 27.2578C313.438 27.2578 314.812 27.2188 315.625 27.1406L317.031 26.9766C318.375 26.8203 319.07 26.7422 319.117 26.7422H319.773C321.023 26.7422 321.648 27.3281 321.648 28.5C321.648 31.0312 320.242 32.2969 317.43 32.2969L312.273 32.1328C310.742 32.1328 309.672 32.3984 309.062 32.9297C308.453 33.4453 308.148 34.6016 308.148 36.3984Z" fill="#CA721C"/>
</svg>
